<?xml version="1.0" encoding="UTF-8"?>
<svg version="1.1" xmlns="http://www.w3.org/2000/svg" width="866" height="288">
<path d="M0 0 C4.37385799 -0.26210888 8.74569809 -0.42144886 13.125 -0.5625 C14.3625 -0.63791016 15.6 -0.71332031 16.875 -0.79101562 C25.79085427 -1.00672178 25.79085427 -1.00672178 28.96875 1.63916016 C30.57787679 4.01187721 31.78095484 6.40584383 33 9 C34.1058267 10.89364112 35.22619411 12.77885008 36.359375 14.65625 C38.07873706 17.61053492 39.78993187 20.56932244 41.49609375 23.53125 C42.32560547 24.954375 42.32560547 24.954375 43.171875 26.40625 C43.6678418 27.26541016 44.16380859 28.12457031 44.67480469 29.00976562 C45.85011048 31.13198466 45.85011048 31.13198466 48 32 C48.27545654 31.27022949 48.55091309 30.54045898 48.8347168 29.78857422 C49.93483805 27.15593543 51.17803203 24.82620805 52.64453125 22.3828125 C53.15693359 21.52816406 53.66933594 20.67351562 54.19726562 19.79296875 C54.73029297 18.91253906 55.26332031 18.03210938 55.8125 17.125 C56.33392578 16.25230469 56.85535156 15.37960938 57.39257812 14.48046875 C58.42564013 12.76514731 59.47805873 11.06131812 60.55053711 9.37036133 C62.01521949 7.08038192 62.01521949 7.08038192 62.99829102 4.82299805 C64.14454794 2.59890483 64.92840465 1.42526211 67 0 C71.79685653 -0.85653988 76.46015502 -0.65751166 81.3125 -0.4375 C83.28186523 -0.39012695 83.28186523 -0.39012695 85.29101562 -0.34179688 C88.52961009 -0.25935992 91.7636694 -0.14432328 95 0 C93.43644173 4.32456085 91.24929744 8.17215759 88.89453125 12.1015625 C88.49223801 12.77867279 88.08994476 13.45578308 87.67546082 14.15341187 C86.82399143 15.58489239 85.97078921 17.01534345 85.1159668 18.44482422 C83.83045618 20.59496653 82.55050403 22.74833537 81.27148438 24.90234375 C80.43784896 26.30229119 79.6038684 27.70203317 78.76953125 29.1015625 C78.16058517 30.12506805 78.16058517 30.12506805 77.53933716 31.16925049 C75.68394701 34.26864064 73.8030916 37.3347904 71.79052734 40.33496094 C70.81720459 41.78950684 70.81720459 41.78950684 69.82421875 43.2734375 C69.25147217 44.10020996 68.67872559 44.92698242 68.08862305 45.77880859 C66.80608479 47.91853688 66.80608479 47.91853688 67.1730957 50.19506836 C68.48739238 53.06385942 70.7416861 53.77699858 73.5 55.1875 C86.29193751 62.3715976 94.92895728 73.82201543 99 87.9375 C102.0033122 102.58352248 100.32969844 118.35190951 92 131 C81.97087521 143.80768559 70.45189795 151.46741059 54.3125 154.75 C53.219375 154.8325 52.12625 154.915 51 155 C50.36320312 155.0515625 49.72640625 155.103125 49.0703125 155.15625 C34.6713865 155.78916982 21.14004901 150.66483176 10.25 141.4375 C2.0597182 133.56678122 -3.62799191 124.13471565 -6 113 C-6.18304688 112.19949219 -6.36609375 111.39898437 -6.5546875 110.57421875 C-8.78655679 97.67244803 -6.07178966 84.00699718 0.91015625 72.984375 C7.94764295 63.10458767 16.20951947 56.42130423 27 51 C25.48938916 46.93881007 23.56546891 43.20084326 21.4375 39.4375 C20.88376709 38.45015869 20.88376709 38.45015869 20.31884766 37.44287109 C17.50906397 32.49699455 14.56985286 27.63726739 11.58984375 22.79296875 C11.20374435 22.16384079 10.81764496 21.53471283 10.41984558 20.88652039 C8.45798291 17.69144766 6.48701512 14.50258134 4.50170898 11.32202148 C3.76907366 10.13413361 3.03672059 8.94607159 2.3046875 7.7578125 C1.64452637 6.6970752 0.98436523 5.63633789 0.30419922 4.54345703 C-0.12618652 3.70411621 -0.55657227 2.86477539 -1 2 C-0.67 1.34 -0.34 0.68 0 0 Z " fill="#F2DA66" transform="translate(59,68)"/>
<path d="M0 0 C10.209375 -0.061875 20.41875 -0.12375 30.9375 -0.1875 C35.7481604 -0.22846802 35.7481604 -0.22846802 40.65600586 -0.27026367 C43.21728133 -0.27903111 45.77856101 -0.28667443 48.33984375 -0.29296875 C49.65408325 -0.30831665 50.96832275 -0.32366455 52.3223877 -0.33947754 C61.69019723 -0.34213507 69.78971964 0.20497417 76.875 6.875 C77.95394531 7.86113281 77.95394531 7.86113281 79.0546875 8.8671875 C85.1384443 15.5373305 85.36913135 21.72453479 85.26953125 30.453125 C84.72260143 37.65040437 82.26699223 42.13589337 77 47 C74.32979228 49.25298776 72.38277899 50.24592218 69 51 C69.50450684 51.97348389 70.00901367 52.94696777 70.52880859 53.94995117 C72.40597684 57.57358513 74.28009878 61.19878735 76.15332031 64.82446289 C76.96336639 66.39129662 77.77422997 67.95770799 78.5859375 69.52368164 C79.75477571 71.77899507 80.92063303 74.03582786 82.0859375 76.29296875 C82.62823502 77.33701118 82.62823502 77.33701118 83.18148804 78.40214539 C83.52168976 79.06245255 83.86189148 79.7227597 84.21240234 80.40307617 C84.50996429 80.97821457 84.80752625 81.55335297 85.11410522 82.1459198 C86.18283842 84.38266069 87.07934053 86.69835133 88 89 C77.11 89 66.22 89 55 89 C51.4375 81.875 51.4375 81.875 50.25952148 79.51464844 C48.48866097 75.96695485 46.71014072 72.42364173 44.91015625 68.890625 C44.58797119 68.25527832 44.26578613 67.61993164 43.93383789 66.96533203 C43.04178949 65.20735534 42.14598621 63.45128548 41.25 61.6953125 C40 59 40 59 40 57 C36.7 57 33.4 57 30 57 C30 67.56 30 78.12 30 89 C20.1 89 10.2 89 0 89 C0 59.63 0 30.26 0 0 Z M30 21 C30 25.95 30 30.9 30 36 C33.41751005 36.10792137 36.83161597 36.18727736 40.25 36.25 C41.21808594 36.28351563 42.18617188 36.31703125 43.18359375 36.3515625 C48.74591353 36.51567525 48.74591353 36.51567525 53.640625 34.203125 C55.64470202 30.95513811 55.53352855 28.73469988 55 25 C53.71779923 22.58656903 53.71779923 22.58656903 51 21 C47.40540252 20.50482586 43.86964994 20.62468589 40.25 20.75 C39.26644531 20.76804687 38.28289063 20.78609375 37.26953125 20.8046875 C34.84593659 20.85174759 32.42284375 20.92348914 30 21 Z " fill="#FEFEFE" transform="translate(512,99)"/>
<path d="M0 0 C10.03295639 7.88862718 14.2337915 17.94703504 15.77734375 30.4453125 C16.67396933 44.7598612 15.05020162 57.76060789 5.64453125 69.26171875 C-1.82941661 77.16173489 -12.57834974 82.45469546 -23.48852539 83.16113281 C-41.53112682 83.45151622 -56.33287935 83.06400445 -70.3125 70.3125 C-79.77366068 60.27793565 -81.47266754 47.04316887 -81.24609375 33.80859375 C-80.48223517 21.98697291 -77.10741703 10.4277101 -68.25 2.125 C-49.59601226 -12.61482396 -19.53101104 -13.72286754 0 0 Z M-45 17 C-51.56623832 25.31123865 -51.59607844 33.68671831 -51 44 C-50.0273379 50.68370561 -48.09161489 54.782149 -42.71875 58.94140625 C-37.93363652 61.88860114 -32.41370828 61.53758502 -27 61 C-21.63841084 59.28468354 -18.68445087 55.8526612 -16 51 C-14.4848393 46.45451791 -14.77462337 41.94904489 -14.75 37.1875 C-14.729375 36.20201172 -14.70875 35.21652344 -14.6875 34.20117188 C-14.65363229 27.89754407 -15.0337266 23.17761095 -19.53515625 18.35546875 C-26.56979019 12.97604279 -37.49823335 10.99858668 -45 17 Z " fill="#FEFEFE" transform="translate(483,106)"/>
<path d="M0 0 C3.9225595 3.66383749 7.1309046 7.59974504 8.8359375 12.71484375 C8.8359375 15.68484375 8.8359375 18.65484375 8.8359375 21.71484375 C-0.4040625 21.71484375 -9.6440625 21.71484375 -19.1640625 21.71484375 C-19.6590625 18.24984375 -19.6590625 18.24984375 -20.1640625 14.71484375 C-23.55284614 13.69412579 -26.69563131 13.54922065 -30.2265625 13.52734375 C-31.26941406 13.51316406 -32.31226563 13.49898437 -33.38671875 13.484375 C-36.3764573 13.50689071 -36.3764573 13.50689071 -39.1640625 15.71484375 C-38.6690625 18.18984375 -38.6690625 18.18984375 -38.1640625 20.71484375 C-31.76311071 23.00361572 -25.36086171 24.63813846 -18.7265625 26.08984375 C-7.95033754 28.55547861 2.0969311 31.52780762 9.0859375 40.65234375 C12.99554803 47.49416218 12.66044105 55.37155939 10.6484375 62.83984375 C7.93945335 70.86738395 4.13964332 74.97061291 -3.078125 79.35546875 C-11.62475804 83.12031469 -19.82446749 84.21850636 -29.1015625 84.08984375 C-30.15553223 84.08041748 -31.20950195 84.07099121 -32.29541016 84.0612793 C-43.69404044 83.83980103 -55.83504066 82.07488434 -64.7890625 74.3046875 C-71.00757119 67.36438762 -71.32132986 60.98490279 -72.1640625 51.71484375 C-62.9240625 51.71484375 -53.6840625 51.71484375 -44.1640625 51.71484375 C-43.1740625 54.35484375 -42.1840625 56.99484375 -41.1640625 59.71484375 C-37.63427061 61.98655103 -34.29396659 61.96028883 -30.1640625 61.90234375 C-28.648125 61.89267578 -28.648125 61.89267578 -27.1015625 61.8828125 C-24.35895305 61.72598776 -21.83738939 61.32911923 -19.1640625 60.71484375 C-19.4940625 58.73484375 -19.8240625 56.75484375 -20.1640625 54.71484375 C-26.06613961 52.81812597 -31.96636274 50.99699994 -37.9765625 49.4765625 C-39.21732544 49.16174927 -39.21732544 49.16174927 -40.4831543 48.84057617 C-42.10761077 48.43291124 -43.73402313 48.03293849 -45.36254883 47.6418457 C-52.26116232 45.9083033 -58.93390838 43.56653634 -63.9765625 38.33984375 C-64.79060547 37.52386719 -64.79060547 37.52386719 -65.62109375 36.69140625 C-71.21435771 29.52636431 -70.83033991 22.4421394 -70.1640625 13.71484375 C-69.0368138 7.19508098 -65.47841968 2.56446644 -60.1640625 -1.28515625 C-42.58281997 -10.64531072 -16.71476353 -12.58410358 0 0 Z " fill="#FEFEFE" transform="translate(289.1640625,105.28515625)"/>
<path d="M0 0 C9.36375 -0.103125 18.7275 -0.20625 28.375 -0.3125 C31.31196777 -0.35802002 34.24893555 -0.40354004 37.27490234 -0.45043945 C39.62856914 -0.46505605 41.98224868 -0.47779394 44.3359375 -0.48828125 C45.53710205 -0.51386108 46.7382666 -0.53944092 47.97583008 -0.5657959 C57.6759913 -0.57077852 64.54435009 1.79178181 71.875 8.1875 C78.76417539 15.80956638 79.73366438 24.35879192 79.31640625 34.2890625 C78.58080169 42.91652335 74.71042577 49.75201329 68.2890625 55.54296875 C58.33213543 62.70607451 43.74486715 61.57065456 32 61 C31.34 60.67 30.68 60.34 30 60 C30 69.57 30 79.14 30 89 C20.1 89 10.2 89 0 89 C0 59.63 0 30.26 0 0 Z M30 22 C30 27.61 30 33.22 30 39 C33.0628125 39.0928125 33.0628125 39.0928125 36.1875 39.1875 C37.91033203 39.23970703 37.91033203 39.23970703 39.66796875 39.29296875 C43.57912447 38.9490805 46.2059851 37.7940149 49 35 C49.27705788 32.73889194 49.27705788 32.73889194 49.3125 30.125 C49.34988281 29.24070313 49.38726562 28.35640625 49.42578125 27.4453125 C49.19988061 24.92586753 49.19988061 24.92586753 47.46484375 23.19140625 C44.065373 21.54823893 40.93171292 21.67783225 37.25 21.8125 C33.66125 21.9053125 33.66125 21.9053125 30 22 Z " fill="#FEFEFE" transform="translate(313,99)"/>
<path d="M0 0 C24.09 0 48.18 0 73 0 C73 7.26 73 14.52 73 22 C58.81 22 44.62 22 30 22 C30 26.62 30 31.24 30 36 C42.21 36 54.42 36 67 36 C67 42.93 67 49.86 67 57 C63.86911129 58.56544436 60.57285977 58.00148591 57.1484375 57.87890625 C56.37440582 57.85529526 55.60037415 57.83168427 54.80288696 57.80735779 C52.3267397 57.73068562 49.85090241 57.64667684 47.375 57.5625 C45.69793192 57.50928285 44.02084863 57.45654243 42.34375 57.40429688 C38.22891298 57.27596285 34.11457659 57.13771755 30 57 C30 67.56 30 78.12 30 89 C20.1 89 10.2 89 0 89 C0 59.63 0 30.26 0 0 Z " fill="#FEFEFE" transform="translate(753,99)"/>
<path d="M0 0 C29.04 0 58.08 0 88 0 C88 7.92 88 15.84 88 24 C78.43 24 68.86 24 59 24 C59 45.45 59 66.9 59 89 C49.1 89 39.2 89 29 89 C29 67.55 29 46.1 29 24 C19.76 24 10.52 24 1 24 C-1.5320172 16.40394839 0 8.00694143 0 0 Z " fill="#FEFEFE" transform="translate(604,99)"/>
<path d="M0 0 C1.84948242 -0.10634766 1.84948242 -0.10634766 3.73632812 -0.21484375 C12.59168435 -0.39644307 12.59168435 -0.39644307 15.77685547 2.26855469 C17.38592718 4.63987425 18.59142299 7.0331067 19.8125 9.625 C20.91852264 11.51852668 22.03888186 13.40373677 23.171875 15.28125 C24.89123706 18.23553492 26.60243187 21.19432244 28.30859375 24.15625 C29.13810547 25.579375 29.13810547 25.579375 29.984375 27.03125 C30.4803418 27.89041016 30.97630859 28.74957031 31.48730469 29.63476562 C32.66261048 31.75698466 32.66261048 31.75698466 34.8125 32.625 C35.08795654 31.89522949 35.36341309 31.16545898 35.6472168 30.41357422 C36.74733805 27.78093543 37.99053203 25.45120805 39.45703125 23.0078125 C39.96943359 22.15316406 40.48183594 21.29851562 41.00976562 20.41796875 C41.54279297 19.53753906 42.07582031 18.65710938 42.625 17.75 C43.14642578 16.87730469 43.66785156 16.00460938 44.20507812 15.10546875 C45.23814013 13.39014731 46.29055873 11.68631812 47.36303711 9.99536133 C48.82771949 7.70538192 48.82771949 7.70538192 49.81079102 5.44799805 C50.95704794 3.22390483 51.74090465 2.05026211 53.8125 0.625 C58.60935653 -0.23153988 63.27265502 -0.03251166 68.125 0.1875 C70.09436523 0.23487305 70.09436523 0.23487305 72.10351562 0.28320312 C75.34211009 0.36564008 78.5761694 0.48067672 81.8125 0.625 C80.24894173 4.94956085 78.06179744 8.79715759 75.70703125 12.7265625 C75.30473801 13.40367279 74.90244476 14.08078308 74.48796082 14.77841187 C73.63649143 16.20989239 72.78328921 17.64034345 71.9284668 19.06982422 C70.64295618 21.21996653 69.36300403 23.37333537 68.08398438 25.52734375 C63.88682979 32.57848192 59.64031811 39.56766685 55.09643555 46.40380859 C53.87591884 48.51528624 53.25402112 50.24085426 52.8125 52.625 C52.11125 52.480625 51.41 52.33625 50.6875 52.1875 C49.73875 52.001875 48.79 51.81625 47.8125 51.625 C46.94625 51.45097656 46.08 51.27695313 45.1875 51.09765625 C41.07588587 50.52183992 37.08281686 50.47923881 32.9375 50.5 C32.17308594 50.49613281 31.40867188 50.49226563 30.62109375 50.48828125 C25.60095169 50.49680441 20.78197071 50.91184133 15.8125 51.625 C10.67639772 44.22716326 6.09542607 36.5170581 1.5168457 28.76855469 C0.25169334 26.62786519 -1.01740196 24.48955275 -2.28710938 22.3515625 C-6.35273318 15.49476204 -10.36816654 8.6232061 -14.1875 1.625 C-11.42859542 -1.13390458 -3.69798004 0.09516161 0 0 Z " fill="#546977" transform="translate(72.1875,67.375)"/>
<path d="M0 0 C9.9 0 19.8 0 30 0 C30 29.37 30 58.74 30 89 C20.1 89 10.2 89 0 89 C0 59.63 0 30.26 0 0 Z " fill="#FEFEFE" transform="translate(704,99)"/>
<path d="M0 0 C1.84948242 -0.10634766 1.84948242 -0.10634766 3.73632812 -0.21484375 C12.59777276 -0.39656792 12.59777276 -0.39656792 15.7746582 2.27514648 C17.37678299 4.64453076 18.58549643 7.04213054 19.8125 9.625 C20.92876304 11.48449893 22.060894 13.33454557 23.20703125 15.17578125 C24.34900988 17.09477626 25.48831059 19.01536727 26.625 20.9375 C27.20958984 21.91267578 27.79417969 22.88785156 28.39648438 23.89257812 C28.95271484 24.83166016 29.50894531 25.77074219 30.08203125 26.73828125 C30.58323486 27.58173096 31.08443848 28.42518066 31.60083008 29.29418945 C32.73006139 31.46641821 33.47482663 33.2059668 33.8125 35.625 C32.66796875 38.0625 32.66796875 38.0625 31 40.625 C28.72020374 44.14424644 28.72020374 44.14424644 26.7890625 47.85546875 C25.8125 49.625 25.8125 49.625 23 50.9375 C19.60751831 51.66921174 18.05966739 51.76448333 14.8125 50.625 C12.92138672 48.26586914 12.92138672 48.26586914 11.1171875 45.09765625 C10.61564651 44.23576439 10.61564651 44.23576439 10.10397339 43.35646057 C9.37801585 42.10835277 8.65849932 40.85648139 7.94470215 39.60137939 C6.39789091 36.90125569 4.79344501 34.23721195 3.19049072 31.57015991 C1.51742691 28.78337408 -0.1405476 25.98773835 -1.79882812 23.19213867 C-3.0802318 21.03261698 -4.36426087 18.87467051 -5.6484375 16.71679688 C-6.4715108 15.33082217 -7.29443323 13.94475786 -8.1171875 12.55859375 C-8.4973703 11.92005966 -8.8775531 11.28152557 -9.26925659 10.62364197 C-11.01772718 7.67154217 -12.71250424 4.7242298 -14.1875 1.625 C-11.42859542 -1.13390458 -3.69798004 0.09516161 0 0 Z " fill="#39454E" transform="translate(72.1875,67.375)"/>
<path d="M0 0 C0.66 0 1.32 0 2 0 C2.48210937 1.07121094 2.96421875 2.14242187 3.4609375 3.24609375 C4.09862566 4.64338104 4.73666469 6.04050824 5.375 7.4375 C5.69210938 8.14455078 6.00921875 8.85160156 6.3359375 9.58007812 C7.8881687 13.47056562 7.8881687 13.47056562 11 16 C13.8754532 16.39315079 16.74111846 16.74649025 19.625 17.0625 C20.42679688 17.15337891 21.22859375 17.24425781 22.0546875 17.33789062 C24.03607868 17.56197653 26.01799305 17.7814275 28 18 C27.505 19.485 27.505 19.485 27 21 C26.34 21 25.68 21 25 21 C25 21.66 25 22.32 25 23 C23.125 25.125 23.125 25.125 21 27 C20.34 27 19.68 27 19 27 C19 27.66 19 28.32 19 29 C18.01 29.66 17.02 30.32 16 31 C15.67719281 33.03560327 15.67719281 33.03560327 15.92578125 35.3515625 C16.00795898 36.62773437 16.00795898 36.62773437 16.09179688 37.9296875 C16.20104492 39.26386719 16.20104492 39.26386719 16.3125 40.625 C16.37373047 41.5221875 16.43496094 42.419375 16.49804688 43.34375 C16.65156533 45.56386306 16.81943161 47.78194979 17 50 C15.68 49.34 14.36 48.68 13 48 C13 47.34 13 46.68 13 46 C11.63875 45.814375 11.63875 45.814375 10.25 45.625 C7 45 7 45 4.9375 43.9375 C2.36910272 42.69472712 0.82671543 42.58633433 -2 43 C-4.67398476 44.93897879 -4.67398476 44.93897879 -7 47 C-7.66 47 -8.32 47 -9 47 C-9 47.66 -9 48.32 -9 49 C-12.465 49.495 -12.465 49.495 -16 50 C-15.88140625 48.84242188 -15.7628125 47.68484375 -15.640625 46.4921875 C-15.50925008 44.95322414 -15.37910678 43.4141553 -15.25 41.875 C-15.16878906 41.11445313 -15.08757812 40.35390625 -15.00390625 39.5703125 C-14.67593908 35.34318004 -14.80018042 33.38127968 -16.828125 29.51171875 C-19.19467252 26.77486613 -20.68894105 26.2416471 -24 25 C-28 20.67567568 -28 20.67567568 -28 18 C-26.72125 17.94585937 -25.4425 17.89171875 -24.125 17.8359375 C-15.10768801 17.43072395 -15.10768801 17.43072395 -7.33105469 13.5 C-4.45981167 9.68005306 -2.71219764 5.43357138 -1 1 C-0.67 0.67 -0.34 0.34 0 0 Z " fill="#EFC41B" transform="translate(105,142)"/>
<path d="M0 0 C2.85442753 -0.05437005 5.70780076 -0.09384974 8.5625 -0.125 C9.36236328 -0.14175781 10.16222656 -0.15851563 10.98632812 -0.17578125 C16.08055249 -0.21736676 20.17079293 0.37383843 25 2 C26.33130115 2.34135927 27.66358148 2.67925956 29 3 C29.33 2.34 29.66 1.68 30 1 C30.58201172 1.64388672 30.58201172 1.64388672 31.17578125 2.30078125 C33.34384302 4.32028204 35.6401893 5.674922 38.1875 7.1875 C50.01560646 14.68900962 58.10553856 25.38916233 62 38.9375 C65.0033122 53.58352248 63.32969844 69.35190951 55 82 C44.97087521 94.80768559 33.45189795 102.46741059 17.3125 105.75 C16.219375 105.8325 15.12625 105.915 14 106 C13.36320312 106.0515625 12.72640625 106.103125 12.0703125 106.15625 C0.45010872 106.66702819 -11.25356169 103.27958441 -21 97 C-21.66 96.01 -22.32 95.02 -23 94 C-20.64828869 94.59861742 -18.3140622 95.26924352 -16 96 C-15.67 96.66 -15.34 97.32 -15 98 C-12.67493341 98.39156228 -12.67493341 98.39156228 -10 98.5 C-7.25 98.65625 -7.25 98.65625 -5 99 C-4.505 99.99 -4.505 99.99 -4 101 C-1.67843403 101.40729228 0.6568787 101.74438677 3 102 C3.66 101.01 4.32 100.02 5 99 C5.5775 99.165 6.155 99.33 6.75 99.5 C9.26664369 100.14462031 9.26664369 100.14462031 13 100 C14.485 100.2784375 14.485 100.2784375 16 100.5625 C18.87910058 100.98236884 20.27999364 100.75034658 23 100 C23.99 100.33 24.98 100.66 26 101 C29.14186566 100.34163026 29.14186566 100.34163026 32 99 C32.495 97.515 32.495 97.515 33 96 C32.67 95.67 32.34 95.34 32 95 C32.33 94.34 32.66 93.68 33 93 C33.94875 92.690625 34.8975 92.38125 35.875 92.0625 C38.91622528 91.02848341 39.9207288 90.28719832 42 88 C42.66 88 43.32 88 44 88 C44.33 87.34 44.66 86.68 45 86 C46.64363134 85.27840576 48.31050386 84.60648579 50 84 C49.01 80.535 49.01 80.535 48 77 C48.66 76.34 49.32 75.68 50 75 C51.32 75 52.64 75 54 75 C54.495 73.515 54.495 73.515 55 72 C55.99 71.67 56.98 71.34 58 71 C58.33 69.02 58.66 67.04 59 65 C57.515 65.495 57.515 65.495 56 66 C56.33 64.02 56.66 62.04 57 60 C57.33 60.99 57.66 61.98 58 63 C58.66 63 59.32 63 60 63 C60.66 57.39 61.32 51.78 62 46 C61.34 46 60.68 46 60 46 C60 46.66 60 47.32 60 48 C58.68 47.34 57.36 46.68 56 46 C57.32 45.34 58.64 44.68 60 44 C60 43.34 60 42.68 60 42 C58.02 41.505 58.02 41.505 56 41 C56.495 40.01 56.495 40.01 57 39 C56.61636486 34.01274315 55.4422393 30.35355702 53 26 C52.505 26.495 52.505 26.495 52 27 C50.68 27 49.36 27 48 27 C48.20625 25.88625 48.4125 24.7725 48.625 23.625 C48.810625 21.830625 48.810625 21.830625 49 20 C48.01 19.01 48.01 19.01 47 18 C46.34 18.33 45.68 18.66 45 19 C45 18.34 45 17.68 45 17 C44.01 17 43.02 17 42 17 C41.62875 16.030625 41.2575 15.06125 40.875 14.0625 C39.29771173 10.73175011 39.29771173 10.73175011 36 10.0625 C32.94751264 9.83087406 32.94751264 9.83087406 30 11 C27.3125 9.75 27.3125 9.75 25 8 C25 7.01 25 6.02 25 5 C16.74720228 1.61045808 8.80426458 1.31328058 0 1 C0 0.67 0 0.34 0 0 Z " fill="#F1E57F" transform="translate(96,117)"/>
<path d="M0 0 C3.3 0 6.6 0 10 0 C9.67 0.66 9.34 1.32 9 2 C6.93359375 2.4140625 6.93359375 2.4140625 4.4375 2.625 C3.61121094 2.69976562 2.78492188 2.77453125 1.93359375 2.8515625 C0.97646484 2.92503906 0.97646484 2.92503906 0 3 C-0.33 3.99 -0.66 4.98 -1 6 C-2.32303717 6.3721042 -3.65737935 6.70630173 -5 7 C-5.33 7.66 -5.66 8.32 -6 9 C-6.72703125 9.26167969 -7.4540625 9.52335937 -8.203125 9.79296875 C-11.73723195 11.31816295 -14.09109551 13.61417779 -16.75 16.3125 C-17.24371094 16.78623047 -17.73742187 17.25996094 -18.24609375 17.74804688 C-21.17298171 20.67894427 -22.80341562 22.80854027 -23 27 C-22.67 27.99 -22.34 28.98 -22 30 C-22.66 30.66 -23.32 31.32 -24 32 C-24.99 32 -25.98 32 -27 32 C-29.38608528 37.24938762 -30 42.26325373 -30 48 C-30.17638343 49.77197512 -30.36475213 51.54278174 -30.5625 53.3125 C-30.9951041 57.79475911 -30.88085905 61.59570475 -30 66 C-28.35 66.33 -26.7 66.66 -25 67 C-25.495 67.99 -25.495 67.99 -26 69 C-25.51917969 69.39832031 -25.03835937 69.79664063 -24.54296875 70.20703125 C-22.62608175 72.43450247 -22.52258357 73.78834669 -22.3125 76.6875 C-22.21388672 77.89986328 -22.21388672 77.89986328 -22.11328125 79.13671875 C-22.07589844 79.75160156 -22.03851563 80.36648437 -22 81 C-21.01 81.33 -20.02 81.66 -19 82 C-19 82.99 -19 83.98 -19 85 C-18.01 85 -17.02 85 -16 85 C-15.01 87.64 -14.02 90.28 -13 93 C-22.98667594 88.65989249 -28.05872163 77.55296003 -32 68 C-36.1538621 55.24302795 -34.58277578 40.8533963 -29.37890625 28.640625 C-22.72718654 15.90248755 -12.66755885 7.36437739 0 1 C0 0.67 0 0.34 0 0 Z " fill="#EEE587" transform="translate(86,118)"/>
<path d="M0 0 C0.99 0.33 1.98 0.66 3 1 C3 1.99 3 2.98 3 4 C3.66 4 4.32 4 5 4 C5.67354499 5.43429001 6.33859701 6.87257057 7 8.3125 C7.37125 9.11300781 7.7425 9.91351563 8.125 10.73828125 C9 13 9 13 9 16 C9.99 16 10.98 16 12 16 C12 16.66 12 17.32 12 18 C13.299375 17.938125 14.59875 17.87625 15.9375 17.8125 C21.05549789 17.78812858 25.28068221 19.12566102 30 21 C29.47428335 25.04894052 27.46350492 26.81930975 24.5625 29.5625 C19.57664447 34.04111686 19.57664447 34.04111686 17.75 40.25 C17.85995772 44.04200033 17.85995772 44.04200033 19.125 47.6875 C20 51 20 51 19.125 53.4375 C18.75375 53.953125 18.3825 54.46875 18 55 C14.21193549 54.39363716 11.17104296 53.28838544 7.75 51.5625 C6.87859375 51.13066406 6.0071875 50.69882813 5.109375 50.25390625 C3 49 3 49 2 47 C0.515 46.505 0.515 46.505 -1 46 C-1.309375 46.86625 -1.309375 46.86625 -1.625 47.75 C-3.58852394 50.96303918 -5.69103334 52.22296235 -9 54 C-11.66026314 54.50625576 -14.3013447 54.72457023 -17 55 C-16.98839844 53.75863281 -16.97679688 52.51726562 -16.96484375 51.23828125 C-16.95546132 49.59635568 -16.9463616 47.95442847 -16.9375 46.3125 C-16.92912109 45.49587891 -16.92074219 44.67925781 -16.91210938 43.83789062 C-16.89557949 39.75500916 -16.96964902 35.98348293 -18 32 C-18.99 31.67 -19.98 31.34 -21 31 C-21 30.34 -21 29.68 -21 29 C-18.06210002 30.01306896 -17.04499542 30.93167363 -15.3125 33.5625 C-13.6486419 37.9202236 -14.05038137 40.86749624 -14.8125 45.375 C-14.92142578 46.11105469 -15.03035156 46.84710938 -15.14257812 47.60546875 C-15.41152519 49.40624472 -15.7034389 51.20356516 -16 53 C-12.535 52.505 -12.535 52.505 -9 52 C-9 51.34 -9 50.68 -9 50 C-7.64453125 48.7109375 -7.64453125 48.7109375 -5.8125 47.375 C-5.22082031 46.92898437 -4.62914063 46.48296875 -4.01953125 46.0234375 C-0.66048401 44.32117372 1.98819918 44.70690516 5.53515625 45.734375 C6.36917969 46.06953125 7.20320313 46.4046875 8.0625 46.75 C8.89910156 47.07484375 9.73570313 47.3996875 10.59765625 47.734375 C13.25900448 49.13645114 14.98524364 50.78516391 17 53 C16.855625 52.13117188 16.71125 51.26234375 16.5625 50.3671875 C16.376875 49.21476562 16.19125 48.06234375 16 46.875 C15.814375 45.73804688 15.62875 44.60109375 15.4375 43.4296875 C15.03043951 40.23862398 14.92190098 37.21182209 15 34 C16.32 33.34 17.64 32.68 19 32 C19 31.34 19 30.68 19 30 C19.66 30 20.32 30 21 30 C21.66 28.68 22.32 27.36 23 26 C23.66 26 24.32 26 25 26 C25 25.34 25 24.68 25 24 C26.5 22.375 26.5 22.375 28 21 C26.21142578 20.92652344 26.21142578 20.92652344 24.38671875 20.8515625 C22.82028932 20.77652396 21.25388421 20.7009766 19.6875 20.625 C18.50897461 20.57859375 18.50897461 20.57859375 17.30664062 20.53125 C16.54931641 20.49257812 15.79199219 20.45390625 15.01171875 20.4140625 C13.96697388 20.36693115 13.96697388 20.36693115 12.90112305 20.31884766 C11 20 11 20 8 18 C6.39453125 15.03125 6.39453125 15.03125 4.8125 11.5 C4.01779297 9.75203125 4.01779297 9.75203125 3.20703125 7.96875 C2 5 2 5 2 3 C0.35 4.32 -1.3 5.64 -3 7 C-3.1875 4.625 -3.1875 4.625 -3 2 C-2.01 1.34 -1.02 0.68 0 0 Z " fill="#F4D048" transform="translate(105,139)"/>
<path d="M0 0 C2.35171131 0.59861742 4.6859378 1.26924352 7 2 C7.33 2.66 7.66 3.32 8 4 C10.32506659 4.39156228 10.32506659 4.39156228 13 4.5 C15.75 4.65625 15.75 4.65625 18 5 C18.33 5.66 18.66 6.32 19 7 C22.00864448 8.88858303 24.46753064 9.28539746 27.984375 9.4140625 C29.38623047 9.47207031 29.38623047 9.47207031 30.81640625 9.53125 C31.78449219 9.5621875 32.75257812 9.593125 33.75 9.625 C35.22533203 9.68300781 35.22533203 9.68300781 36.73046875 9.7421875 C39.15346037 9.83628426 41.57644796 9.92192328 44 10 C44 10.33 44 10.66 44 11 C29.26420333 13.50822071 14.74533519 11.21175959 2 3 C1.34 2.01 0.68 1.02 0 0 Z " fill="#E7DC85" transform="translate(73,211)"/>
<path d="M0 0 C2.85442753 -0.05437005 5.70780076 -0.09384974 8.5625 -0.125 C9.36236328 -0.14175781 10.16222656 -0.15851563 10.98632812 -0.17578125 C17.62534573 -0.22997731 23.30451514 0.90641438 29.25 4 C29.89453125 4.33 30.5390625 4.66 31.203125 5 C33.77206857 6.42967294 35.91907746 7.91907746 38 10 C37.01 10 36.02 10 35 10 C34.21625 10.226875 33.4325 10.45375 32.625 10.6875 C30 11 30 11 27.1875 9.75 C26.1046875 8.88375 26.1046875 8.88375 25 8 C25 7.01 25 6.02 25 5 C16.74720228 1.61045808 8.80426458 1.31328058 0 1 C0 0.67 0 0.34 0 0 Z " fill="#E4DA81" transform="translate(96,117)"/>
<path d="M0 0 C2.93789998 1.01306896 3.95500458 1.93167363 5.6875 4.5625 C7.3513581 8.9202236 6.94961863 11.86749624 6.1875 16.375 C6.07857422 17.11105469 5.96964844 17.84710938 5.85742188 18.60546875 C5.58847481 20.40624472 5.2965611 22.20356516 5 24 C8.465 23.505 8.465 23.505 12 23 C12 22.34 12 21.68 12 21 C14.3125 19.3125 14.3125 19.3125 17 18 C17.99 18.33 18.98 18.66 20 19 C15.20974491 24.29449247 10.82416536 25.26112203 4 26 C4.01160156 24.75863281 4.02320312 23.51726562 4.03515625 22.23828125 C4.04453868 20.59635568 4.0536384 18.95442847 4.0625 17.3125 C4.07087891 16.49587891 4.07925781 15.67925781 4.08789062 14.83789062 C4.10442051 10.75500916 4.03035098 6.98348293 3 3 C2.01 2.67 1.02 2.34 0 2 C0 1.34 0 0.68 0 0 Z " fill="#F5D14B" transform="translate(84,168)"/>
<path d="M0 0 C0.33 0.66 0.66 1.32 1 2 C4.25944236 2.30011183 7.47578405 2.41527759 10.74609375 2.47851562 C15.8256298 2.67170763 19.43197548 3.75195644 24 6 C24 5.01 24 4.02 24 3 C24.66 3.33 25.32 3.66 26 4 C25.67 5.32 25.34 6.64 25 8 C24.29875 7.855625 23.5975 7.71125 22.875 7.5625 C17.10803112 6.43418 11.48404314 5.76064795 5.625 5.4375 C4.52091797 5.37272461 4.52091797 5.37272461 3.39453125 5.30664062 C1.59651932 5.20156201 -0.20171958 5.10037907 -2 5 C-1.125 1.125 -1.125 1.125 0 0 Z " fill="#596B65" transform="translate(100,112)"/>
<path d="M0 0 C3.3 0 6.6 0 10 0 C9.67 0.66 9.34 1.32 9 2 C6.93359375 2.4140625 6.93359375 2.4140625 4.4375 2.625 C3.61121094 2.69976562 2.78492187 2.77453125 1.93359375 2.8515625 C0.97646484 2.92503906 0.97646484 2.92503906 0 3 C-0.33 3.99 -0.66 4.98 -1 6 C-2.32303717 6.3721042 -3.65737935 6.70630173 -5 7 C-5.33 7.66 -5.66 8.32 -6 9 C-9.375 10.6875 -9.375 10.6875 -13 12 C-13.99 11.67 -14.98 11.34 -16 11 C-14.27136297 9.89500435 -12.54206612 8.79104086 -10.8125 7.6875 C-9.84957031 7.07261719 -8.88664062 6.45773438 -7.89453125 5.82421875 C-5.99551293 4.62740153 -4.07630778 3.46191463 -2.13671875 2.33203125 C-1.43160156 1.89246094 -0.72648437 1.45289062 0 1 C0 0.67 0 0.34 0 0 Z " fill="#E7DE8C" transform="translate(86,118)"/>
<path d="M0 0 C0.66 0 1.32 0 2 0 C2 0.66 2 1.32 2 2 C3.65 2.33 5.3 2.66 7 3 C7 3.99 7 4.98 7 6 C7.99 6 8.98 6 10 6 C10.99 8.64 11.98 11.28 13 14 C9.41207019 12.50838873 7.35687162 10.46967132 4.8125 7.5625 C3.77029297 6.38880859 3.77029297 6.38880859 2.70703125 5.19140625 C1 3 1 3 0 0 Z " fill="#ECE28D" transform="translate(60,197)"/>
<path d="M0 0 C16.32989691 10.65979381 16.32989691 10.65979381 18 14 C16.0625 13.6875 16.0625 13.6875 14 13 C13.67 12.01 13.34 11.02 13 10 C11.27650745 9.3577614 11.27650745 9.3577614 9 9 C6.6652039 8.33847444 4.33163378 7.67258667 2 7 C2.33 6.34 2.66 5.68 3 5 C0.525 4.01 0.525 4.01 -2 3 C-1.34 2.67 -0.68 2.34 0 2 C0 1.34 0 0.68 0 0 Z " fill="#E8E28F" transform="translate(125,118)"/>
<path d="M0 0 C0.99 0 1.98 0 3 0 C4.09150504 1.85826478 5.14732223 3.73752511 6.1875 5.625 C6.77917969 6.66914062 7.37085937 7.71328125 7.98046875 8.7890625 C9 12 9 12 7.67578125 15.3984375 C7.12277344 16.25695312 6.56976563 17.11546875 6 18 C4.95994298 14.61981469 4.91995518 11.5219721 5 8 C4.34 7.67 3.68 7.34 3 7 C1.94647157 4.69034152 0.94280904 2.3570226 0 0 Z " fill="#414F56" transform="translate(97,90)"/>
<path d="M0 0 C3.82696408 -0.1923788 6.62695184 0.34948181 10.1875 1.75 C11.04730469 2.07484375 11.90710938 2.3996875 12.79296875 2.734375 C15.33034366 4.18943601 15.98597467 5.30348572 17 8 C12.59780431 7.33300065 8.99144754 5.91896516 5 4 C4.67 3.34 4.34 2.68 4 2 C2.35 2 0.7 2 -1 2 C-0.67 1.34 -0.34 0.68 0 0 Z " fill="#F0C935" transform="translate(103,184)"/>
<path d="M0 0 C1 3 1 3 -0.390625 6.1015625 C-3.94205756 10.04641723 -6.63953493 10.07837267 -11.75 10.375 C-12.54277344 10.44332031 -13.33554688 10.51164063 -14.15234375 10.58203125 C-16.09962228 10.74625956 -18.04971415 10.87651028 -20 11 C-17.39709053 8.39709053 -15.80476709 8.59338324 -12.1875 8.1875 C-6.97601687 7.45545481 -6.97601687 7.45545481 -2.8125 4.5 C-1.01140894 2.15859368 -1.01140894 2.15859368 0 0 Z " fill="#F6D24C" transform="translate(99,149)"/>
<path d="M0 0 C0.33 0 0.66 0 1 0 C1 2.31 1 4.62 1 7 C1.99 6.67 2.98 6.34 4 6 C4.73323796 3.98491642 4.73323796 3.98491642 5 2 C7.31 2 9.62 2 12 2 C10.625 3.5 10.625 3.5 9 5 C8.34 5 7.68 5 7 5 C7 5.66 7 6.32 7 7 C4.69 7.33 2.38 7.66 0 8 C0 5.36 0 2.72 0 0 Z " fill="#EEC52B" transform="translate(89,184)"/>
<path d="M0 0 C2.475 0.495 2.475 0.495 5 1 C4.67 1.66 4.34 2.32 4 3 C4.99 3.99 5.98 4.98 7 6 C6.67 6.66 6.34 7.32 6 8 C4.68 8 3.36 8 2 8 C2 6.68 2 5.36 2 4 C1.34 4 0.68 4 0 4 C0 2.68 0 1.36 0 0 Z " fill="#F3E477" transform="translate(56,184)"/>
<path d="M0 0 C1.98 0 3.96 0 6 0 C5.01 0.495 5.01 0.495 4 1 C4.66 1.78375 5.32 2.5675 6 3.375 C8 6 8 6 8 8 C4.82461668 7.65978036 3.97723135 6.97533396 1.75 4.5625 C0 2 0 2 0 0 Z " fill="#EFCA36" transform="translate(77,160)"/>
<path d="M0 0 C2.97 0 5.94 0 9 0 C9.33 0.99 9.66 1.98 10 3 C7.36 3.33 4.72 3.66 2 4 C1.34 2.68 0.68 1.36 0 0 Z " fill="#596253" transform="translate(86,115)"/>
<path d="M0 0 C-3.46735947 3.03393954 -7.52949826 4.9351577 -12 6 C-12.99 5.67 -13.98 5.34 -15 5 C-9.99422572 1.85351331 -6.01877323 -0.3439299 0 0 Z " fill="#EDE390" transform="translate(133,215)"/>
<path d="M0 0 C0.33 0.66 0.66 1.32 1 2 C6.94 2 12.88 2 19 2 C19 2.33 19 2.66 19 3 C9.595 3.495 9.595 3.495 0 4 C0 2.68 0 1.36 0 0 Z " fill="#F6F6F6" transform="translate(605,119)"/>
<path d="M0 0 C0.78375 0.04125 1.5675 0.0825 2.375 0.125 C1.30098892 3.04017292 0.59689824 4.90310176 -1.625 7.125 C-1.955 6.465 -2.285 5.805 -2.625 5.125 C-2.295 4.465 -1.965 3.805 -1.625 3.125 C-2.615 2.795 -3.605 2.465 -4.625 2.125 C-2.625 0.125 -2.625 0.125 0 0 Z " fill="#606F77" transform="translate(151.625,67.875)"/>
<path d="M0 0 C-1.5830577 4.2742558 -4.50568404 6.26531794 -8 9 C-6.53333333 3.5 -6.53333333 3.5 -4 1.125 C-2 0 -2 0 0 0 Z " fill="#F3EA91" transform="translate(148,201)"/>
<path d="M0 0 C2 2 2 2 2.125 4.625 C2.08375 5.40875 2.0425 6.1925 2 7 C0.68 7 -0.64 7 -2 7 C-1.125 1.125 -1.125 1.125 0 0 Z " fill="#F0E474" transform="translate(146,137)"/>
<path d="M0 0 C0.66 0.33 1.32 0.66 2 1 C1.67 2.32 1.34 3.64 1 5 C0.29875 4.855625 -0.4025 4.71125 -1.125 4.5625 C-4.07556141 3.98521625 -7.03270151 3.48304859 -10 3 C-10 2.67 -10 2.34 -10 2 C-2.25 1.875 -2.25 1.875 0 3 C0 2.01 0 1.02 0 0 Z " fill="#767D6C" transform="translate(124,115)"/>
<path d="M0 0 C0.99 0.99 1.98 1.98 3 3 C2.01 4.485 2.01 4.485 1 6 C-1.625 6.1875 -1.625 6.1875 -4 6 C-3.67 5.01 -3.34 4.02 -3 3 C-2.34 2.67 -1.68 2.34 -1 2 C-0.67 1.34 -0.34 0.68 0 0 Z " fill="#EEE177" transform="translate(61,144)"/>
<path d="M0 0 C0.66 0 1.32 0 2 0 C2.66 0.99 3.32 1.98 4 3 C4.99 3.33 5.98 3.66 7 4 C6.34 5.32 5.68 6.64 5 8 C5 7.34 5 6.68 5 6 C4.01 6 3.02 6 2 6 C1.34 4.02 0.68 2.04 0 0 Z " fill="#F3E37C" transform="translate(136,128)"/>
<path d="M0 0 C0.66 0.66 1.32 1.32 2 2 C1.2265625 3.175625 1.2265625 3.175625 0.4375 4.375 C-0.036875 5.24125 -0.51125 6.1075 -1 7 C-0.67 7.66 -0.34 8.32 0 9 C-1.32 8.67 -2.64 8.34 -4 8 C-2.87548273 5.0280615 -1.77706209 2.66559313 0 0 Z " fill="#5F6E7A" transform="translate(111,92)"/>
<path d="M0 0 C0.33 0.99 0.66 1.98 1 3 C1.66 3 2.32 3 3 3 C3.33 2.34 3.66 1.68 4 1 C4 2.65 4 4.3 4 6 C2.35 6 0.7 6 -1 6 C-0.67 4.02 -0.34 2.04 0 0 Z " fill="#F2E578" transform="translate(153,177)"/>
<path d="M0 0 C0.66 0 1.32 0 2 0 C1.67 4.29 1.34 8.58 1 13 C0.67 13 0.34 13 0 13 C-0.19658808 11.58456585 -0.38187546 10.16755969 -0.5625 8.75 C-0.66691406 7.96109375 -0.77132812 7.1721875 -0.87890625 6.359375 C-1.00027349 3.99467126 -0.69633257 2.2488963 0 0 Z " fill="#F1E475" transform="translate(156,163)"/>
<path d="M0 0 C5.75 3.625 5.75 3.625 8 7 C6.0625 6.6875 6.0625 6.6875 4 6 C3.67 5.01 3.34 4.02 3 3 C2.01 3 1.02 3 0 3 C0 2.01 0 1.02 0 0 Z " fill="#F1E99B" transform="translate(135,125)"/>
</svg>
