<?xml version="1.0" encoding="UTF-8"?>
<svg version="1.1" xmlns="http://www.w3.org/2000/svg" width="866" height="288">
<path d="M0 0 C1.84948242 -0.10634766 1.84948242 -0.10634766 3.73632812 -0.21484375 C12.59168435 -0.39644307 12.59168435 -0.39644307 15.77685547 2.26855469 C17.38592718 4.63987425 18.59142299 7.0331067 19.8125 9.625 C20.91852264 11.51852668 22.03888186 13.40373677 23.171875 15.28125 C24.89123706 18.23553492 26.60243187 21.19432244 28.30859375 24.15625 C29.13810547 25.579375 29.13810547 25.579375 29.984375 27.03125 C30.4803418 27.89041016 30.97630859 28.74957031 31.48730469 29.63476562 C32.66261048 31.75698466 32.66261048 31.75698466 34.8125 32.625 C35.06700928 31.92665039 35.32151855 31.22830078 35.58374023 30.50878906 C36.95539746 27.28963246 38.63215749 24.46057791 40.47265625 21.484375 C40.99755898 20.63289886 40.99755898 20.63289886 41.5330658 19.76422119 C42.26833703 18.57312467 43.00547483 17.38317857 43.74438477 16.19433594 C44.87867882 14.36908021 46.0071852 12.54034672 47.13476562 10.7109375 C52.65190276 1.78559724 52.65190276 1.78559724 53.8125 0.625 C55.81214982 0.53741997 57.8148611 0.51803424 59.81640625 0.52734375 C61.03134766 0.53056641 62.24628906 0.53378906 63.49804688 0.53710938 C64.77744141 0.54548828 66.05683594 0.55386719 67.375 0.5625 C68.65826172 0.56701172 69.94152344 0.57152344 71.26367188 0.57617188 C74.44666022 0.58800455 77.62955762 0.60448932 80.8125 0.625 C80.8125 4.51999875 79.46346192 6.27963551 77.48046875 9.62890625 C77.13244202 10.22044495 76.78441528 10.81198364 76.42584229 11.42144775 C75.29032727 13.34735117 74.14540565 15.26746532 73 17.1875 C72.22165849 18.50259503 71.44374612 19.81794414 70.66625977 21.13354492 C64.81138457 31.02259847 58.86695682 40.85679428 52.8125 50.625 C55.77550503 52.93032868 58.84714727 54.878695 62.0625 56.8125 C74.60973613 64.79862366 82.70559322 76.46663814 86.3984375 90.91796875 C88.63607317 105.5470397 86.42847001 120.33845093 77.8125 132.625 C68.77850427 144.22221277 57.22033513 152.78596022 42.5390625 155.30859375 C26.95087696 157.11753792 12.60733786 153.86295247 -0.10546875 144.46875 C-11.2327108 135.01443124 -18.11962616 123.02819086 -20.1875 108.625 C-21.27608071 92.50563179 -17.12246535 78.15479308 -6.5 65.8125 C-1.62116446 60.70519935 3.69217097 57.08472516 9.8125 53.625 C11.48099649 52.62805604 13.14821081 51.62895183 14.8125 50.625 C14.52753662 50.15006104 14.24257324 49.67512207 13.94897461 49.18579102 C13.33807983 48.16763306 13.33807983 48.16763306 12.71484375 47.12890625 C12.24997559 46.35417969 11.78510742 45.57945313 11.30615234 44.78125 C10.25550573 43.03006242 9.20505473 41.27875748 8.15478516 39.52734375 C5.02314357 34.30582002 1.88721546 29.08692077 -1.25390625 23.87109375 C-1.9286499 22.74952881 -2.60339355 21.62796387 -3.29858398 20.47241211 C-4.62634528 18.2654858 -5.95525784 16.05925167 -7.28540039 13.85375977 C-7.89504639 12.83983154 -8.50469238 11.82590332 -9.1328125 10.78125 C-9.67437988 9.88212891 -10.21594727 8.98300781 -10.77392578 8.05664062 C-12.00136479 5.94519114 -13.12706009 3.82395686 -14.1875 1.625 C-11.42859542 -1.13390458 -3.69798004 0.09516161 0 0 Z " fill="#F2DB67" transform="translate(72.1875,67.375)"/>
<path d="M0 0 C15.0665625 -0.0928125 15.0665625 -0.0928125 30.4375 -0.1875 C33.5923999 -0.21481201 36.7472998 -0.24212402 39.99780273 -0.27026367 C42.51806252 -0.2790313 45.03832657 -0.28667459 47.55859375 -0.29296875 C49.49756531 -0.3159906 49.49756531 -0.3159906 51.47570801 -0.33947754 C60.7857869 -0.34216133 68.83624416 0.24877197 75.875 6.875 C76.95394531 7.86113281 76.95394531 7.86113281 78.0546875 8.8671875 C84.28285114 15.69565607 84.46333828 22.38207555 84.265625 31.30078125 C83.64785476 39.90414038 79.4325232 43.99677561 73.12109375 49.53125 C71 51 71 51 68 51 C69.90050181 54.68133242 71.80284563 58.3617056 73.70678711 62.04125977 C74.35213169 63.28905447 74.99700153 64.53709484 75.64135742 65.78540039 C79.03813102 72.36516464 82.44262224 78.92582517 86.16333008 85.33032227 C87 87 87 87 87 89 C76.11 89 65.22 89 54 89 C50.4375 81.875 50.4375 81.875 49.25952148 79.51464844 C47.48866097 75.96695485 45.71014072 72.42364173 43.91015625 68.890625 C43.58797119 68.25527832 43.26578613 67.61993164 42.93383789 66.96533203 C42.04178949 65.20735534 41.14598621 63.45128548 40.25 61.6953125 C39 59 39 59 39 57 C35.7 57 32.4 57 29 57 C29 67.56 29 78.12 29 89 C19.43 89 9.86 89 0 89 C0 59.63 0 30.26 0 0 Z M29 21 C29 25.95 29 30.9 29 36 C32.23006734 36.1081697 35.45649754 36.18739234 38.6875 36.25 C39.59951172 36.28351563 40.51152344 36.31703125 41.45117188 36.3515625 C45.76337037 36.41428539 48.30811664 36.40033503 52.10546875 34.203125 C54.30122263 32.02745281 54.30122263 32.02745281 54.625 28.5 C54.30122263 24.97254719 54.30122263 24.97254719 52.10546875 22.796875 C47.63092405 20.20783027 43.75513645 20.56376884 38.6875 20.75 C37.75615234 20.76804687 36.82480469 20.78609375 35.86523438 20.8046875 C33.57637851 20.85163839 31.28805473 20.92337677 29 21 Z " fill="#000000" transform="translate(513,99)"/>
<path d="M0 0 C10.24030103 8.66487011 13.92118179 19.97849438 15.3359375 32.9765625 C16.36459314 45.81332773 13.365398 58.77697754 5.3359375 68.9765625 C-2.40912763 77.46245994 -12.70998955 82.35854052 -24.22851562 83.15356445 C-42.38075765 83.56300126 -56.14341813 82.92620991 -70.4140625 70.6015625 C-80.83693385 58.44154592 -82.61222565 44.50887958 -81.6640625 28.9765625 C-80.14871037 16.96932318 -75.57833329 7.52026257 -66.21484375 -0.26953125 C-47.72734514 -12.98145602 -18.36836138 -12.96265743 0 0 Z M-46.6640625 17.9765625 C-52.48118095 26.55010015 -52.72744531 36.83531282 -51.23828125 46.8359375 C-49.89261518 52.28464672 -47.88349169 55.44086115 -43.48046875 58.91796875 C-38.97111681 61.54599967 -33.73741871 61.56803753 -28.6640625 60.9765625 C-22.8093258 59.17589656 -19.57872279 56.45612385 -16.6640625 50.9765625 C-15.2075353 46.60698089 -15.39863289 42.3674422 -15.3515625 37.7890625 C-15.32255859 36.86802734 -15.29355469 35.94699219 -15.26367188 34.99804688 C-15.20652822 28.80455385 -16.07958936 24.12089461 -19.6640625 18.9765625 C-25.1809113 13.85377433 -29.01471873 13.6174783 -36.390625 13.70703125 C-41.10922189 14.09555534 -43.04452768 14.89610733 -46.6640625 17.9765625 Z " fill="#000000" transform="translate(483.6640625,106.0234375)"/>
<path d="M0 0 C3.87454997 3.6663208 7.82959144 7.6681388 9 13 C9 15.97 9 18.94 9 22 C-0.24 22 -9.48 22 -19 22 C-19.66 20.02 -20.32 18.04 -21 16 C-24.34048103 13.77301265 -25.53285581 13.7288079 -29.4375 13.75 C-30.38496094 13.74484375 -31.33242188 13.7396875 -32.30859375 13.734375 C-35.02552453 14.00251911 -36.67465583 14.61468858 -39 16 C-38.505 18.475 -38.505 18.475 -38 21 C-36.06337553 21.56550698 -34.12561106 22.12710903 -32.1875 22.6875 C-31.57165039 22.86684082 -30.95580078 23.04618164 -30.32128906 23.23095703 C-26.62835758 24.29297059 -22.92865116 25.27345122 -19.19140625 26.16796875 C-9.10774394 28.60756447 -0.20685127 30.92665774 7.4375 38.375 C11.76531569 45.64573036 13.09105503 52.15376345 11.53125 60.51171875 C9.54348274 68.23798077 6.60877661 73.8144029 -0.328125 78.015625 C-15.30109124 85.94365159 -35.01678492 86.75329804 -51.34375 82.03515625 C-59.35789343 78.91199741 -65.93827625 74.79680538 -70 67 C-71.80054351 61.85184404 -72 57.49531869 -72 52 C-62.76 52 -53.52 52 -44 52 C-43.01 54.64 -42.02 57.28 -41 60 C-37.60909305 62.1475744 -34.4594542 62.27224412 -30.5 62.25 C-29.5821875 62.25515625 -28.664375 62.2603125 -27.71875 62.265625 C-24.8221718 61.98262598 -22.63624347 61.20350245 -20 60 C-20 58.35 -20 56.7 -20 55 C-25.90207711 53.10328222 -31.80230024 51.28215619 -37.8125 49.76171875 C-39.05326294 49.44690552 -39.05326294 49.44690552 -40.3190918 49.12573242 C-41.94354827 48.71806749 -43.56996063 48.31809474 -45.19848633 47.92700195 C-53.85756868 45.75107393 -61.22403169 42.31539236 -67.1875 35.5 C-71.00092269 28.13614928 -71.79188711 20.20343605 -69.75390625 12.1796875 C-67.3571457 5.25019325 -62.10134543 0.07783394 -55.640625 -3.1953125 C-53.12063792 -4.25182882 -50.59946685 -5.15911492 -48 -6 C-47.32582031 -6.226875 -46.65164062 -6.45375 -45.95703125 -6.6875 C-31.62864244 -10.67838586 -12.02493208 -9.11832081 0 0 Z " fill="#000000" transform="translate(289,105)"/>
<path d="M0 0 C7.4067109 -0.09310178 14.8132935 -0.16396685 22.22047329 -0.20724869 C25.66078449 -0.22803277 29.10069235 -0.25617889 32.54077148 -0.30175781 C36.50499472 -0.35394646 40.46906048 -0.37302121 44.43359375 -0.390625 C45.65582138 -0.41127014 46.87804901 -0.43191528 48.13731384 -0.45318604 C57.03129914 -0.45550144 62.91205704 1.24849993 70.25 6.1875 C77.69925076 13.80605191 79.29850068 21.7690466 79.31689453 32.09106445 C79.21822162 38.1691941 78.51134461 42.89757736 75 48 C74.5875 48.63035156 74.175 49.26070312 73.75 49.91015625 C68.95416125 56.32731549 61.79237016 59.71205725 54 61 C52.08856637 61.07831674 50.17472879 61.10788625 48.26171875 61.09765625 C47.29967529 61.09515869 46.33763184 61.09266113 45.34643555 61.09008789 C43.53526245 61.07643188 43.53526245 61.07643188 41.6875 61.0625 C37.830625 61.041875 33.97375 61.02125 30 61 C30 70.24 30 79.48 30 89 C25.88822073 89.02291394 21.77660342 89.04283951 17.66479492 89.05493164 C16.26504772 89.0599708 14.8653058 89.06680216 13.46557617 89.07543945 C11.45754223 89.0875232 9.44947043 89.09269807 7.44140625 89.09765625 C6.23170166 89.10289307 5.02199707 89.10812988 3.77563477 89.11352539 C1 89 1 89 0 88 C-0.09516211 85.2611158 -0.12554594 82.54752059 -0.11352539 79.80834961 C-0.11367142 78.94988937 -0.11381744 78.09142914 -0.1139679 77.20695496 C-0.11326847 74.35539262 -0.1054747 71.50389475 -0.09765625 68.65234375 C-0.09579218 66.68079158 -0.09436822 64.70923895 -0.09336853 62.73768616 C-0.08954251 57.53773733 -0.07971152 52.33781625 -0.06866455 47.13787842 C-0.05845222 41.83606339 -0.05387129 36.5342439 -0.04882812 31.23242188 C-0.03808933 20.82160237 -0.02101191 10.41080349 0 0 Z M30 22 C30 27.61 30 33.22 30 39 C33.0628125 39.0928125 33.0628125 39.0928125 36.1875 39.1875 C37.91033203 39.23970703 37.91033203 39.23970703 39.66796875 39.29296875 C43.57912447 38.9490805 46.2059851 37.7940149 49 35 C49.27709927 33.00250681 49.27709927 33.00250681 49.3125 30.6875 C49.34988281 29.90761719 49.38726562 29.12773437 49.42578125 28.32421875 C48.81570612 24.99399212 47.76681844 23.93370354 45 22 C42.2317375 21.70550399 39.98597978 21.61656637 37.25 21.75 C34.8575 21.8325 32.465 21.915 30 22 Z " fill="#000000" transform="translate(313,99)"/>
<path d="M0 0 C24.09 0 48.18 0 73 0 C73 7.26 73 14.52 73 22 C58.81 22 44.62 22 30 22 C30 26.62 30 31.24 30 36 C42.21 36 54.42 36 67 36 C67 42.93 67 49.86 67 57 C54.79 57 42.58 57 30 57 C30 67.56 30 78.12 30 89 C20.1 89 10.2 89 0 89 C0 59.63 0 30.26 0 0 Z " fill="#000000" transform="translate(753,99)"/>
<path d="M0 0 C29.04 0 58.08 0 88 0 C88 7.59 88 15.18 88 23 C87.505 23.495 87.505 23.495 87 24 C77.76 24 68.52 24 59 24 C59 45.45 59 66.9 59 89 C49.1 89 39.2 89 29 89 C29 67.55 29 46.1 29 24 C19.76 24 10.52 24 1 24 C0.67 23.67 0.34 23.34 0 23 C0 15.41 0 7.82 0 0 Z " fill="#000000" transform="translate(604,99)"/>
<path d="M0 0 C1.84948242 -0.10634766 1.84948242 -0.10634766 3.73632812 -0.21484375 C12.59168435 -0.39644307 12.59168435 -0.39644307 15.77685547 2.26855469 C17.38592718 4.63987425 18.59142299 7.0331067 19.8125 9.625 C20.91852264 11.51852668 22.03888186 13.40373677 23.171875 15.28125 C24.89123706 18.23553492 26.60243187 21.19432244 28.30859375 24.15625 C29.13810547 25.579375 29.13810547 25.579375 29.984375 27.03125 C30.4803418 27.89041016 30.97630859 28.74957031 31.48730469 29.63476562 C32.66261048 31.75698466 32.66261048 31.75698466 34.8125 32.625 C35.06700928 31.92665039 35.32151855 31.22830078 35.58374023 30.50878906 C36.95539746 27.28963246 38.63215749 24.46057791 40.47265625 21.484375 C40.99755898 20.63289886 40.99755898 20.63289886 41.5330658 19.76422119 C42.26833703 18.57312467 43.00547483 17.38317857 43.74438477 16.19433594 C44.87867882 14.36908021 46.0071852 12.54034672 47.13476562 10.7109375 C52.65190276 1.78559724 52.65190276 1.78559724 53.8125 0.625 C55.81214982 0.53741997 57.8148611 0.51803424 59.81640625 0.52734375 C61.03134766 0.53056641 62.24628906 0.53378906 63.49804688 0.53710938 C64.77744141 0.54548828 66.05683594 0.55386719 67.375 0.5625 C68.65826172 0.56701172 69.94152344 0.57152344 71.26367188 0.57617188 C74.44666022 0.58800455 77.62955762 0.60448932 80.8125 0.625 C80.8125 4.50551783 79.48530056 6.2533879 77.515625 9.59375 C77.17033249 10.18255447 76.82503998 10.77135895 76.46928406 11.37800598 C75.34049161 13.29777616 74.2018906 15.21150392 73.0625 17.125 C72.28696125 18.43760856 71.51165285 19.75035326 70.73657227 21.06323242 C64.62906942 31.37799334 58.31956571 41.55722782 51.8125 51.625 C51.19648926 51.5542627 50.58047852 51.48352539 49.94580078 51.41064453 C44.17099513 50.78464636 38.49407186 50.4695991 32.6875 50.5 C31.94113281 50.49613281 31.19476563 50.49226563 30.42578125 50.48828125 C25.4726538 50.49689538 20.7161226 50.92448249 15.8125 51.625 C11.51459738 45.49262675 7.69571586 39.11326966 3.92626953 32.64990234 C-0.06885424 25.8026089 -4.14941466 19.00845794 -8.25244141 12.2253418 C-8.97826416 11.02131714 -8.97826416 11.02131714 -9.71875 9.79296875 C-10.14736328 9.08422607 -10.57597656 8.3754834 -11.01757812 7.64526367 C-12.15941942 5.67349056 -13.191468 3.67370901 -14.1875 1.625 C-11.42859542 -1.13390458 -3.69798004 0.09516161 0 0 Z " fill="#546876" transform="translate(72.1875,67.375)"/>
<path d="M0 0 C9.57 0 19.14 0 29 0 C29 29.37 29 58.74 29 89 C19.43 89 9.86 89 0 89 C-1.7974182 87.2025818 -1.12630946 84.75862038 -1.13552856 82.36555481 C-1.13350433 81.55720688 -1.1314801 80.74885895 -1.12939453 79.91601562 C-1.13114685 79.06891525 -1.13289917 78.22181488 -1.13470459 77.3490448 C-1.13912409 74.53475934 -1.13618477 71.72053616 -1.1328125 68.90625 C-1.13348551 66.95951322 -1.13445551 65.01277653 -1.13571167 63.06604004 C-1.13718878 58.98037925 -1.13503368 54.89474029 -1.13037109 50.80908203 C-1.1246738 45.55953484 -1.12795274 40.31003878 -1.13394356 35.06049347 C-1.13754883 31.03891613 -1.13641074 27.01735101 -1.13381577 22.99577332 C-1.1331464 21.05958551 -1.13397525 19.12339661 -1.13629532 17.18721008 C-1.13882129 14.48610476 -1.13498205 11.78508341 -1.12939453 9.08398438 C-1.13141876 8.27563644 -1.13344299 7.46728851 -1.13552856 6.63444519 C-1.11426248 1.11426248 -1.11426248 1.11426248 0 0 Z " fill="#000000" transform="translate(705,99)"/>
<path d="M0 0 C0.66 0 1.32 0 2 0 C2.48210937 1.07121094 2.96421875 2.14242187 3.4609375 3.24609375 C4.09862566 4.64338104 4.73666469 6.04050824 5.375 7.4375 C5.69210938 8.14455078 6.00921875 8.85160156 6.3359375 9.58007812 C7.8881687 13.47056562 7.8881687 13.47056562 11 16 C13.8754532 16.39315079 16.74111846 16.74649025 19.625 17.0625 C20.42679688 17.15337891 21.22859375 17.24425781 22.0546875 17.33789062 C24.03607868 17.56197653 26.01799305 17.7814275 28 18 C27.505 19.485 27.505 19.485 27 21 C26.34 21 25.68 21 25 21 C25 21.66 25 22.32 25 23 C23.125 25.125 23.125 25.125 21 27 C20.34 27 19.68 27 19 27 C19 27.66 19 28.32 19 29 C18.01 29.66 17.02 30.32 16 31 C15.67719281 33.03560327 15.67719281 33.03560327 15.92578125 35.3515625 C16.00795898 36.62773437 16.00795898 36.62773437 16.09179688 37.9296875 C16.20104492 39.26386719 16.20104492 39.26386719 16.3125 40.625 C16.37373047 41.5221875 16.43496094 42.419375 16.49804688 43.34375 C16.65156533 45.56386306 16.81943161 47.78194979 17 50 C15.68 49.34 14.36 48.68 13 48 C13 47.34 13 46.68 13 46 C11.63875 45.814375 11.63875 45.814375 10.25 45.625 C7 45 7 45 4.9375 43.9375 C2.36910272 42.69472712 0.82671543 42.58633433 -2 43 C-4.67398476 44.93897879 -4.67398476 44.93897879 -7 47 C-7.66 47 -8.32 47 -9 47 C-9 47.66 -9 48.32 -9 49 C-12.465 49.495 -12.465 49.495 -16 50 C-15.88140625 48.84242188 -15.7628125 47.68484375 -15.640625 46.4921875 C-15.50925008 44.95322414 -15.37910678 43.4141553 -15.25 41.875 C-15.16878906 41.11445313 -15.08757812 40.35390625 -15.00390625 39.5703125 C-14.67593908 35.34318004 -14.80018042 33.38127968 -16.828125 29.51171875 C-19.19467252 26.77486613 -20.68894105 26.2416471 -24 25 C-28 20.67567568 -28 20.67567568 -28 18 C-26.72125 17.94585937 -25.4425 17.89171875 -24.125 17.8359375 C-15.10768801 17.43072395 -15.10768801 17.43072395 -7.33105469 13.5 C-4.45981167 9.68005306 -2.71219764 5.43357138 -1 1 C-0.67 0.67 -0.34 0.34 0 0 Z " fill="#EFC41B" transform="translate(105,142)"/>
<path d="M0 0 C1.84948242 -0.10634766 1.84948242 -0.10634766 3.73632812 -0.21484375 C12.59168435 -0.39644307 12.59168435 -0.39644307 15.77685547 2.26855469 C17.38592718 4.63987425 18.59142299 7.0331067 19.8125 9.625 C20.91852264 11.51852668 22.03888186 13.40373677 23.171875 15.28125 C24.89123706 18.23553492 26.60243187 21.19432244 28.30859375 24.15625 C29.13810547 25.579375 29.13810547 25.579375 29.984375 27.03125 C30.4803418 27.89041016 30.97630859 28.74957031 31.48730469 29.63476562 C32.66261048 31.75698466 32.66261048 31.75698466 34.8125 32.625 C32.86369657 36.68265352 30.5083185 40.45453716 28.15234375 44.28515625 C26.69270843 46.65604625 26.69270843 46.65604625 25.8125 49.625 C22.95693821 50.92298263 20.58401163 51.59953757 17.4453125 51.703125 C13.10064264 49.92400203 11.65347244 46.1072395 9.4375 42.125 C8.39150734 40.31199066 7.34458596 38.4995169 6.296875 36.6875 C5.74064453 35.71425781 5.18441406 34.74101563 4.61132812 33.73828125 C1.38390873 28.15249785 -1.97520675 22.64557673 -5.3125 17.125 C-6.5878231 15.01155335 -7.86138622 12.89704322 -9.1328125 10.78125 C-9.94516357 9.43256836 -9.94516357 9.43256836 -10.77392578 8.05664062 C-12.00136479 5.94519114 -13.12706009 3.82395686 -14.1875 1.625 C-11.42859542 -1.13390458 -3.69798004 0.09516161 0 0 Z " fill="#37444D" transform="translate(72.1875,67.375)"/>
<path d="M0 0 C0.99 0.33 1.98 0.66 3 1 C3 1.99 3 2.98 3 4 C3.66 4 4.32 4 5 4 C5.67354499 5.43429001 6.33859701 6.87257057 7 8.3125 C7.37125 9.11300781 7.7425 9.91351563 8.125 10.73828125 C9 13 9 13 9 16 C9.99 16 10.98 16 12 16 C12 16.66 12 17.32 12 18 C13.299375 17.938125 14.59875 17.87625 15.9375 17.8125 C21.05549789 17.78812858 25.28068221 19.12566102 30 21 C29.47428335 25.04894052 27.46350492 26.81930975 24.5625 29.5625 C19.57664447 34.04111686 19.57664447 34.04111686 17.75 40.25 C17.85995772 44.04200033 17.85995772 44.04200033 19.125 47.6875 C20 51 20 51 19.125 53.4375 C18.75375 53.953125 18.3825 54.46875 18 55 C13.22793218 54.25862518 9.68842992 52.36877463 5.5 50.05859375 C2.7163689 48.87989995 0.99053754 48.61947483 -2 49 C-3.78101533 50.01650478 -3.78101533 50.01650478 -5.3125 51.4375 C-9.15347133 54.4324424 -12.19037179 54.74686167 -17 55 C-18.06716627 49.66416864 -17.83636431 45.04298056 -17.15625 39.6484375 C-16.99409857 36.89997077 -17.34606384 34.66382819 -18 32 C-18.99 31.67 -19.98 31.34 -21 31 C-21 30.34 -21 29.68 -21 29 C-18.06210002 30.01306896 -17.04499542 30.93167363 -15.3125 33.5625 C-13.6486419 37.9202236 -14.05038137 40.86749624 -14.8125 45.375 C-14.92142578 46.11105469 -15.03035156 46.84710938 -15.14257812 47.60546875 C-15.41152519 49.40624472 -15.7034389 51.20356516 -16 53 C-12.535 52.505 -12.535 52.505 -9 52 C-9 51.34 -9 50.68 -9 50 C-7.64453125 48.7109375 -7.64453125 48.7109375 -5.8125 47.375 C-5.22082031 46.92898437 -4.62914063 46.48296875 -4.01953125 46.0234375 C-0.66048401 44.32117372 1.98819918 44.70690516 5.53515625 45.734375 C6.36917969 46.06953125 7.20320313 46.4046875 8.0625 46.75 C8.89910156 47.07484375 9.73570313 47.3996875 10.59765625 47.734375 C13.25900448 49.13645114 14.98524364 50.78516391 17 53 C16.855625 52.13117188 16.71125 51.26234375 16.5625 50.3671875 C16.376875 49.21476562 16.19125 48.06234375 16 46.875 C15.814375 45.73804688 15.62875 44.60109375 15.4375 43.4296875 C15.03043951 40.23862398 14.92190098 37.21182209 15 34 C16.32 33.34 17.64 32.68 19 32 C19 31.34 19 30.68 19 30 C19.66 30 20.32 30 21 30 C21.66 28.68 22.32 27.36 23 26 C23.66 26 24.32 26 25 26 C25 25.34 25 24.68 25 24 C26.5 22.375 26.5 22.375 28 21 C26.21142578 20.92652344 26.21142578 20.92652344 24.38671875 20.8515625 C22.82028932 20.77652396 21.25388421 20.7009766 19.6875 20.625 C18.50897461 20.57859375 18.50897461 20.57859375 17.30664062 20.53125 C16.54931641 20.49257812 15.79199219 20.45390625 15.01171875 20.4140625 C13.96697388 20.36693115 13.96697388 20.36693115 12.90112305 20.31884766 C11 20 11 20 8 18 C6.39453125 15.03125 6.39453125 15.03125 4.8125 11.5 C4.01779297 9.75203125 4.01779297 9.75203125 3.20703125 7.96875 C2 5 2 5 2 3 C0.35 4.32 -1.3 5.64 -3 7 C-3.1875 4.625 -3.1875 4.625 -3 2 C-2.01 1.34 -1.02 0.68 0 0 Z " fill="#F4D148" transform="translate(105,139)"/>
<path d="M0 0 C3.11679663 2.83827438 4.92096805 5.40218592 6.625 9.25 C7.02976563 10.14203125 7.43453125 11.0340625 7.8515625 11.953125 C13.36557611 26.58214071 12.11212966 41.21578934 5.9375 55.44921875 C-0.27327638 67.80607593 -11.36787141 77.12955258 -24.015625 82.421875 C-26.61518579 83.17922736 -28.48620469 82.97308205 -31 82 C-31 81.34 -31 80.68 -31 80 C-28.69 80.33 -26.38 80.66 -24 81 C-24 80.34 -24 79.68 -24 79 C-22.68 79 -21.36 79 -20 79 C-19.9175 78.236875 -19.835 77.47375 -19.75 76.6875 C-19 74 -19 74 -17.25 72.1875 C-15 71 -15 71 -12.5 71.0625 C-9.81376632 71.26889564 -9.81376632 71.26889564 -7.8125 69 C-6.9153125 68.01 -6.9153125 68.01 -6 67 C-5.34 67 -4.68 67 -4 67 C-4 65.35 -4 63.7 -4 62 C-1.525 61.505 -1.525 61.505 1 61 C1.33 59.68 1.66 58.36 2 57 C1.01 56.67 0.02 56.34 -1 56 C0.485 55.505 0.485 55.505 2 55 C2.33 54.01 2.66 53.02 3 52 C3.66 51.67 4.32 51.34 5 51 C4.505 47.535 4.505 47.535 4 44 C4.99 43.67 5.98 43.34 7 43 C7.24849534 40.06296475 7.47448285 37.12713668 7.6875 34.1875 C7.79674805 32.93743164 7.79674805 32.93743164 7.90820312 31.66210938 C7.96298828 30.85966797 8.01777344 30.05722656 8.07421875 29.23046875 C8.13182373 28.49207764 8.18942871 27.75368652 8.2487793 26.99291992 C7.92744768 24.41879822 6.85836742 23.72161502 5 22 C5.14453125 19.73828125 5.14453125 19.73828125 5.8125 17.3125 C6.02519531 16.50425781 6.23789063 15.69601563 6.45703125 14.86328125 C6.63621094 14.24839844 6.81539062 13.63351563 7 13 C6.34 13 5.68 13 5 13 C4.34 10.36 3.68 7.72 3 5 C2.34 5 1.68 5 1 5 C0.67 3.35 0.34 1.7 0 0 Z " fill="#EDE284" transform="translate(148,138)"/>
<path d="M0 0 C0.495 0.99 0.495 0.99 1 2 C-0.051875 2.28875 -1.10375 2.5775 -2.1875 2.875 C-7.19388391 4.35229361 -11.60768163 6.19466565 -16.125 8.8125 C-16.97320312 9.29332031 -17.82140625 9.77414063 -18.6953125 10.26953125 C-21.32383663 12.24315191 -22.45052831 14.1289201 -24 17 C-24.70125 17.845625 -25.4025 18.69125 -26.125 19.5625 C-27.88560802 21.85129043 -28.58412085 23.19281575 -29 26 C-30.32 26 -31.64 26 -33 26 C-33 26.99 -33 27.98 -33 29 C-32.01 29.33 -31.02 29.66 -30 30 C-30.66 30.99 -31.32 31.98 -32 33 C-32.33 32.34 -32.66 31.68 -33 31 C-35.78272606 35.83952358 -36.48054515 39.54572404 -37 45 C-37.185625 45.86625 -37.37125 46.7325 -37.5625 47.625 C-38.45417218 52.46550611 -38.22704166 55.67691912 -36 60 C-35.855625 61.093125 -35.71125 62.18625 -35.5625 63.3125 C-35.10135895 66.33553577 -34.62339007 68.07810631 -33.375 70.75 C-32 74 -32 74 -33 77 C-39.92475957 64.57772138 -41.977995 51.98360161 -38.875 37.9375 C-34.54307862 22.7657938 -26.02584092 11.43668941 -12.4453125 3.33984375 C-11.63835937 2.89769531 -10.83140625 2.45554687 -10 2 C-9.30132812 1.61199219 -8.60265625 1.22398438 -7.8828125 0.82421875 C-5.23117857 -0.33655876 -2.85541099 -0.12979141 0 0 Z " fill="#EAE186" transform="translate(92,119)"/>
<path d="M0 0 C3.84612364 1.56693926 6.12412231 4.05564903 9 7 C12.50481252 10.59814924 12.50481252 10.59814924 17 12 C17.12375 12.763125 17.2475 13.52625 17.375 14.3125 C19.35347487 17.58459306 20.29596936 17.66642361 23.875 18.6875 C24.73867187 18.89761719 25.60234375 19.10773438 26.4921875 19.32421875 C28.87791186 19.96710086 30.83871666 20.81883352 33 22 C33 22.66 33 23.32 33 24 C21.086214 22.07842161 12.23306299 15.68377812 4 7 C2.36474551 4.6988429 1.20126469 2.5663382 0 0 Z " fill="#EFE48C" transform="translate(60,197)"/>
<path d="M0 0 C1.12591553 0.00523682 2.25183105 0.01047363 3.41186523 0.01586914 C4.62680664 0.0190918 5.84174805 0.02231445 7.09350586 0.02563477 C8.37290039 0.03401367 9.65229492 0.04239258 10.97045898 0.05102539 C12.2537207 0.05553711 13.53698242 0.06004883 14.85913086 0.06469727 C18.04211921 0.07652994 21.22501661 0.09301471 24.40795898 0.11352539 C25.06795898 1.43352539 25.72795898 2.75352539 26.40795898 4.11352539 C25.87170898 3.98075195 25.33545898 3.84797852 24.78295898 3.71118164 C16.70877104 1.89183337 8.64814464 1.5020205 0.40795898 1.11352539 C0.63612305 1.6562207 0.86428711 2.19891602 1.09936523 2.75805664 C1.38682617 3.47348633 1.67428711 4.18891602 1.97045898 4.92602539 C2.26049805 5.6337207 2.55053711 6.34141602 2.84936523 7.07055664 C3.40795898 9.11352539 3.40795898 9.11352539 2.40795898 12.11352539 C0.42795898 8.48352539 -1.55204102 4.85352539 -3.59204102 1.11352539 C-2.59204102 0.11352539 -2.59204102 0.11352539 0 0 Z " fill="#2A2A46" transform="translate(61.592041015625,67.886474609375)"/>
<path d="M0 0 C13.33837057 -0.40419305 26.48841238 -0.76362886 38 7 C35.39417629 7.93065133 34.35801776 8.14917407 31.75 7.0625 C31.1725 6.711875 30.595 6.36125 30 6 C30 5.34 30 4.68 30 4 C29.09507813 4.03480469 29.09507813 4.03480469 28.171875 4.0703125 C26.97304687 4.09738281 26.97304687 4.09738281 25.75 4.125 C24.96109375 4.14820312 24.1721875 4.17140625 23.359375 4.1953125 C21 4 21 4 19.25 3.03125 C15.71728664 1.41208971 12.09400079 1.52799506 8.25 1.375 C7.45722656 1.33632812 6.66445312 1.29765625 5.84765625 1.2578125 C3.89880584 1.163892 1.94943549 1.08087178 0 1 C0 0.67 0 0.34 0 0 Z " fill="#D8D48A" transform="translate(96,117)"/>
<path d="M0 0 C0.33 0 0.66 0 1 0 C1.04898438 0.81984375 1.09796875 1.6396875 1.1484375 2.484375 C1.22320312 3.56203125 1.29796875 4.6396875 1.375 5.75 C1.44460937 6.81734375 1.51421875 7.8846875 1.5859375 8.984375 C1.97898702 11.84696206 2.64267203 13.5053063 4 16 C4.144375 17.093125 4.28875 18.18625 4.4375 19.3125 C4.89864105 22.33553577 5.37660993 24.07810631 6.625 26.75 C8 30 8 30 7 33 C0.81574082 21.90609994 -0.35606246 12.62043603 0 0 Z " fill="#ECE592" transform="translate(52,163)"/>
<path d="M0 0 C3.82696408 -0.1923788 6.62695184 0.34948181 10.1875 1.75 C11.04730469 2.07484375 11.90710938 2.3996875 12.79296875 2.734375 C15.33034366 4.18943601 15.98597467 5.30348572 17 8 C10.7281887 6.98841753 4.62273067 4.94523988 -1 2 C-0.67 1.34 -0.34 0.68 0 0 Z " fill="#F1CB39" transform="translate(103,184)"/>
<path d="M0 0 C4.23909658 1.3854241 6.70658025 3.32712012 9.8125 6.5 C10.60269531 7.2940625 11.39289063 8.088125 12.20703125 8.90625 C14 11 14 11 14 13 C13.01 13 12.02 13 11 13 C11 12.34 11 11.68 11 11 C10.34 11 9.68 11 9 11 C9 10.34 9 9.68 9 9 C8.443125 8.79375 7.88625 8.5875 7.3125 8.375 C4.05356595 6.43725543 2.30433531 4.00843777 0 1 C0 0.67 0 0.34 0 0 Z " fill="#ECE18C" transform="translate(134,125)"/>
<path d="M0 0 C5.53640692 2.25557319 9.41663021 6.68973987 12 12 C11.67 12.66 11.34 13.32 11 14 C6.33365358 9.68756188 2.8934434 5.67114906 0 0 Z " fill="#ECE28F" transform="translate(60,197)"/>
<path d="M0 0 C1 3 1 3 -0.390625 6.1015625 C-3.94205756 10.04641723 -6.63953493 10.07837267 -11.75 10.375 C-12.54277344 10.44332031 -13.33554688 10.51164063 -14.15234375 10.58203125 C-16.09962228 10.74625956 -18.04971415 10.87651028 -20 11 C-17.39709053 8.39709053 -15.80476709 8.59338324 -12.1875 8.1875 C-6.97601687 7.45545481 -6.97601687 7.45545481 -2.8125 4.5 C-1.01140894 2.15859368 -1.01140894 2.15859368 0 0 Z " fill="#F6D24C" transform="translate(99,149)"/>
<path d="M0 0 C3.78155989 1.26051996 4.25618367 2.56446606 6.25 5.9375 C6.79140625 6.83339844 7.3328125 7.72929688 7.890625 8.65234375 C8.25671875 9.42707031 8.6228125 10.20179687 9 11 C8.67 11.66 8.34 12.32 8 13 C3.3125 9.38671875 3.3125 9.38671875 2 8 C2 7.01 2 6.02 2 5 C0.56009377 2.82967524 0.56009377 2.82967524 -1 1 C-0.67 0.67 -0.34 0.34 0 0 Z " fill="#333B47" transform="translate(89,76)"/>
<path d="M0 0 C0.33 0 0.66 0 1 0 C1 2.31 1 4.62 1 7 C1.99 6.67 2.98 6.34 4 6 C4.73323796 3.98491642 4.73323796 3.98491642 5 2 C7.31 2 9.62 2 12 2 C10.625 3.5 10.625 3.5 9 5 C8.34 5 7.68 5 7 5 C7 5.66 7 6.32 7 7 C4.69 7.33 2.38 7.66 0 8 C0 5.36 0 2.72 0 0 Z " fill="#EEC52B" transform="translate(89,184)"/>
<path d="M0 0 C1.98 0 3.96 0 6 0 C5.01 0.495 5.01 0.495 4 1 C4.66 1.78375 5.32 2.5675 6 3.375 C8 6 8 6 8 8 C4.82461668 7.65978036 3.97723135 6.97533396 1.75 4.5625 C0 2 0 2 0 0 Z " fill="#EFCA36" transform="translate(77,160)"/>
<path d="M0 0 C4.0369867 1.79421631 6.64480474 3.20551875 9 7 C7.68 7.33 6.36 7.66 5 8 C0 2.25 0 2.25 0 0 Z " fill="#F0E37A" transform="translate(70,206)"/>
<path d="M0 0 C3 1 3 1 3.984375 2.7421875 C4.23703125 3.44601563 4.4896875 4.14984375 4.75 4.875 C5.01296875 5.57367188 5.2759375 6.27234375 5.546875 6.9921875 C6 9 6 9 5 12 C3.02 8.37 1.04 4.74 -1 1 C-0.67 0.67 -0.34 0.34 0 0 Z " fill="#313940" transform="translate(59,68)"/>
<path d="M0 0 C3.875 2.75 3.875 2.75 5 5 C4.34 5 3.68 5 3 5 C3 5.99 3 6.98 3 8 C2.34 8 1.68 8 1 8 C0.34 5.69 -0.32 3.38 -1 1 C-0.67 0.67 -0.34 0.34 0 0 Z " fill="#F1E278" transform="translate(59,189)"/>
<path d="M0 0 C2 2 2 2 2.125 5.125 C2.08375 6.07375 2.0425 7.0225 2 8 C1.01 8 0.02 8 -1 8 C-1.93065133 5.39417629 -2.14917407 4.35801776 -1.0625 1.75 C-0.711875 1.1725 -0.36125 0.595 0 0 Z " fill="#EFE378" transform="translate(155,154)"/>
<path d="M0 0 C0.66 0.33 1.32 0.66 2 1 C1.67 1.66 1.34 2.32 1 3 C0.34 3 -0.32 3 -1 3 C-1.33 4.65 -1.66 6.3 -2 8 C-2.99 8.33 -3.98 8.66 -5 9 C-3.7508258 5.54074837 -2.32472205 2.85306797 0 0 Z " fill="#535F6B" transform="translate(126,68)"/>
<path d="M0 0 C-0.33 0.66 -0.66 1.32 -1 2 C-5.455 1.01 -5.455 1.01 -10 0 C-10 -0.33 -10 -0.66 -10 -1 C-3.375 -2.25 -3.375 -2.25 0 0 Z " fill="#303948" transform="translate(88,70)"/>
</svg>
